<?xml version="1.0" encoding="utf-8"?>
<!-- Generator: Adobe Illustrator 17.0.0, SVG Export Plug-In . SVG Version: 6.00 Build 0)  -->
<!DOCTYPE svg PUBLIC "-//W3C//DTD SVG 1.1//EN" "http://www.w3.org/Graphics/SVG/1.1/DTD/svg11.dtd">
<svg version="1.1" id="图层_1" xmlns="http://www.w3.org/2000/svg" xmlns:xlink="http://www.w3.org/1999/xlink" x="0px" y="0px"
	 width="1623.162px" height="864.086px" viewBox="0 0 1623.162 864.086" enable-background="new 0 0 1623.162 864.086"
	 xml:space="preserve">

<script type="text/javascript">

</script>
<polygon fill="#ECECEC" stroke="#000000" stroke-width="3" stroke-miterlimit="10" points="1595.276,48.19 1588.276,443.062
	1608.276,822.19 924.276,746.19 756.276,732.19 756.276,567.19 507.776,567.19 507.776,646.69 248.776,646.69 248.776,275.69
	58.276,275.69 50.776,234.19 50.776,38.19 "  id="textId" onclick= "changeColor(evt)" >
</polygon>
<polygon fill="#FCFCE4" points="1473.276,164.19 1473.276,605.524 1012.401,606.19 1012.401,494.19 1004.151,494.19
	1004.151,477.19 761.276,480.19 761.276,503.024 510.276,503.024 510.276,249.19 527.276,249.19 527.276,89.024 997.776,89.024
	997.776,165.22 1132.255,165.22 1323.61,165.22 1323.61,179.524 1364.276,179.524 1364.276,161.065 "/>
<polygon fill="#A5A5A5" stroke="#1C1C1C" stroke-miterlimit="10" points="1355.276,78.69 1355.276,159.94 1355.276,164.19
	1355.276,180.69 1384.276,180.69 1384.276,164.19 1473.276,164.19 1473.276,605.524 1368.61,605.524 1368.61,640.857
	1503.943,640.857 1503.943,607.69 1503.943,605.524 1503.943,164.19 1503.943,78.69 "/>
<rect x="1066.61" y="606.19" fill="#A5A5A5" stroke="#1C1C1C" stroke-miterlimit="10" width="258" height="36.333"/>
<polygon fill="#A5A5A5" stroke="#1C1C1C" stroke-miterlimit="10" points="1005.151,494.19 1004.151,494.19 1004.151,477.19
	853.151,477.19 853.151,479.94 761.276,479.94 761.276,503.024 510.276,503.024 510.276,341.524 470.943,341.524 470.943,508.69
	476.276,508.69 510.276,508.69 762.943,508.69 762.943,504.94 855.026,504.94 855.026,499.065 874.776,499.065 874.776,644.94
	879.276,644.94 879.276,577.69 940.776,577.69 940.776,499.065 1005.151,499.065 1005.151,626.065 937.651,626.065 937.651,644.94
	1012.401,644.94 1012.401,626.065 1012.401,494.19 "/>
<polygon fill="#A5A5A5" stroke="#1C1C1C" stroke-miterlimit="10" points="1323.151,79.69 1323.151,162.524 1245.61,162.524
	1160.61,162.524 1160.61,98.524 1286.443,98.524 1286.443,79.69 1160.61,79.69 1157.276,79.69 1157.276,98.524 1157.276,162.524
	1120.943,162.524 1120.943,167.19 1245.61,167.19 1245.61,181.524 1326.943,181.524 1326.943,167.19 1326.943,164.065
	1326.943,162.524 1326.943,79.69 "/>
<polygon fill="#A5A5A5" stroke="#1C1C1C" stroke-miterlimit="10" points="999.276,80.94 997.776,80.94 926.776,80.94 926.776,85.69
	997.776,85.69 997.776,167.19 1085.776,167.19 1085.776,80.94 "/>
<rect x="616.776" y="81.25" fill="#A5A5A5" width="272.5" height="5.63"/>
<polygon fill="#A5A5A5" points="158.276,81.25 90.776,81.25 85.776,81.25 53.776,81.25 53.776,235.137 90.776,235.137 90.776,98.44
	158.276,98.44 "/>
<polygon fill="#A5A5A5" points="527.276,81.25 526.026,81.25 502.276,81.25 498.276,81.25 375.776,81.25 373.276,81.25
	208.276,81.25 208.276,232.512 375.776,232.512 375.776,102.19 498.276,102.19 498.276,228.19 458.276,228.19 458.276,249.19
	498.276,249.19 501.026,249.19 527.276,249.19 527.276,86.88 580.276,86.88 580.276,81.25 "/>
<polygon fill="#A5A5A5" points="1537.776,548.69 1537.776,631.94 1598.24,631.94 1593.849,548.69 "/>
<path id="cellId3" fill="#FEEEFF" stroke="#1C1C1C" stroke-miterlimit="10" d="M1433.276,680.94c0,0,28.25-19.75,74-18.75s83.5,29.25,82.5,61
	c0,0,5,50.25-79.75,61.75c0,0-45,6.75-76.75-17V680.94z"/>
    <text x="1483.026" y="730.44" fill="blank">小区3</text>
<rect id="cellId1" x="253.026" y="592.44" fill="#FEEEFF" stroke="#000000" stroke-miterlimit="10" width="130" height="52.5">
  <!--<set attributeName="fill" to="blue" begin="click"/>-->
  <!--<set attributeName="fill" to="blank"-->
         <!--begin="mouseover" end="mouseout"/>-->
   <!--<set attributeName="fill" from="black" to="red"-->
         <!--begin="mousedown" end="mouseup"/>-->
</rect>
  <text x="283.026" y="620.44" fill="blank">小区1</text>
<rect x="91.026"  y="98.982" fill="#FEEEFF" stroke="#000000" stroke-miterlimit="10" width="68.125" height="131.333"/>
<rect id="cellId2" x="380.943" y="103.357" fill="#FEEEFF" stroke="#000000" stroke-miterlimit="10" width="115.333" height="123.083"/>
  <text x="415.026" y="168.44" fill="blank">小区2</text>
<rect x="941.776" y="500.565" fill="#FEEEFF" stroke="#000000" stroke-miterlimit="10" width="62.625" height="124.625"/>
<rect id="cellId4" x="1161.401" y="99.315" fill="#FEEEFF" stroke="#000000" stroke-miterlimit="10" width="120.25" height="61.75"/>
  <text x="1200.026" y="135.44" fill="blank">小区4</text>
<rect x="1504.776" y="380.815" fill="#FEEEFF" stroke="#000000" stroke-miterlimit="10" width="63.232" height="117.875"/>
<polygon fill="#A5A5A5" stroke="#1C1C1C" stroke-miterlimit="10" points="1504.776,353.107 1504.776,379.44 1568.86,379.44
	1568.86,499.107 1572.693,499.107 1572.693,379.44 1572.693,373.774 1572.693,353.107 "/>
<polygon fill="#FEDDC7" points="576.443,89.024 528.11,89.024 528.11,110.19 528.11,115.857 528.11,245.024 532.276,245.024
	532.276,115.857 576.443,115.857 "/>
<rect x="616.776" y="90.024" fill="#FEDDC7" width="143.833" height="25.167"/>
<rect x="616.776" y="172.857" fill="#FEDDC7" width="107.833" height="49.833"/>
<rect x="616.11" y="222.69" fill="#FEDDC7" width="12.333" height="31.167"/>
<rect x="606.943" y="257.524" fill="#FEDDC7" width="23" height="58.5"/>
<polygon fill="#FEDDC7" points="629.943,318.357 620.776,318.357 616.776,318.357 616.776,336.69 616.776,355.024 620.776,355.024
	620.776,336.69 629.943,336.69 "/>
<polygon fill="#FEDDC7" points="629.943,352.357 510.276,352.357 510.276,355.857 567.943,355.857 567.943,474.19 572.11,474.19
	572.11,355.857 629.943,355.857 "/>
<polygon fill="#FEDDC7" points="816.651,369.565 693.151,369.565 693.151,398.69 639.651,398.69 639.651,436.19 694.151,436.19
	694.151,400.44 816.651,400.44 "/>
<rect x="693.026" y="267.19" fill="#FEDDC7" width="120.75" height="37.5"/>
<rect x="784.026" y="168.94" fill="#FEDDC7" width="27.555" height="45"/>
<rect x="784.026" y="122.19" fill="#FEDDC7" width="27.555" height="44.833"/>
<rect x="570.11" y="168.94" fill="#FEDDC7" width="10.167" height="10.583"/>
<rect x="570.11" y="211.524" fill="#FEDDC7" width="10.833" height="11.167"/>
<rect x="821.61" y="345.524" fill="#FEDDC7" width="14" height="13.5"/>
<rect x="838.11" y="345.524" fill="#FEDDC7" width="13.5" height="13.5"/>
<rect x="855.776" y="345.524" fill="#FEDDC7" width="13.583" height="13.5"/>
<rect x="873.86" y="345.524" fill="#FEDDC7" width="14.083" height="13.5"/>
<rect x="890.943" y="345.524" fill="#FEDDC7" width="14.083" height="13.5"/>
<rect x="890.943" y="326.774" fill="#FEDDC7" width="14.083" height="13.5"/>
<rect id="shop:1:904.443:285.523" x="876.61" y="249.19" fill="#FEDDC7" width="55.667" height="72.667"/>
<polygon fill="#FEDDC7" points="850.276,94.169 850.276,89.024 824.026,89.024 824.026,94.169 824.026,99.315 824.026,116.69
	886.526,116.69 886.526,94.169 "/>
<polygon fill="#FEDDC7" points="1084.943,181.524 1084.943,168.94 1011.61,168.94 1009.776,168.94 997.11,168.94 997.11,115.69
	997.11,87.94 925.943,87.94 925.943,115.69 970.776,115.69 970.776,199.69 986.61,199.69 986.61,246.69 1010.776,246.69
	1011.61,246.69 1052.276,246.69 1052.276,241.357 1011.61,241.357 1011.61,181.524 "/>
<rect x="1120.943" y="168.065" fill="#FEDDC7" width="123.958" height="12.875"/>
<rect x="1245.526" y="182.315" fill="#FEDDC7" width="74.875" height="11.875"/>
<rect x="1421.026" y="167.024" fill="#FEDDC7" width="27.75" height="17.917"/>
<rect x="1458.276" y="179.19" fill="#FEDDC7" width="15" height="74.75"/>
<rect x="1458.276" y="272.19" fill="#FEDDC7" width="15" height="159.853"/>
<rect x="1458.276" y="450.69" fill="#FEDDC7" width="15" height="69.75"/>
<rect x="1312.11" y="458.357" fill="#FEDDC7" width="91.5" height="63.667"/>
<rect x="1313.11" y="359.774" fill="#FEDDC7" width="90.5" height="37.083"/>
<polygon id="shop:2:1358.36:273.69" fill="#FEDDC7" points="1403.61,256.524 1399.11,256.524 1399.11,248.024 1318.943,248.024
	1318.943,256.524 1313.11,256.524 1313.11,291.857 1318.943,291.857 1318.943,299.357 1399.11,299.357 1399.11,291.857
	1403.61,291.857 "/>
<polygon fill="#FEDDC7" points="1254.776,252.815 1254.776,241.065 1242.401,241.065 1242.401,252.815 1235.526,252.815
	1235.526,311.44 1258.151,311.44 1258.151,252.815 "/>
<rect x="1235.526" y="313.815" fill="#FEDDC7" width="22.625" height="146.5"/>
<rect x="986.276" y="324.94" fill="#FEDDC7" width="65" height="44.625"/>
<rect x="1051.276" y="349.69" fill="#FEDDC7" width="191.25" height="19.875"/>
<rect x="980.526" y="368.44" fill="#FEDDC7" width="31.875" height="105.75"/>
<polygon fill="#FEDDC7" points="981.526,455.94 851.276,455.94 851.276,457.19 745.526,457.19 745.526,479.524 852.443,479.524
	852.443,476.19 981.526,476.19 "/>
<rect x="880.901" y="150.024" fill="#FEDDC7" width="31.375" height="29.5"/>
<rect x="852.276" y="158.69" fill="#FEDDC7" width="13" height="12.333"/>
<rect x="929.276" y="158.69" fill="#FEDDC7" width="14.5" height="13"/>
<rect x="820.443" y="211.524" fill="#FEDDC7" width="13.5" height="14"/>
<rect x="838.776" y="211.524" fill="#FEDDC7" width="13.5" height="14"/>
<rect x="855.776" y="211.524" fill="#FEDDC7" width="14.667" height="14"/>
<rect x="873.86" y="211.524" fill="#FEDDC7" width="14.083" height="14"/>
<rect x="890.943" y="211.524" fill="#FEDDC7" width="15" height="14"/>
<rect x="890.943" y="228.524" fill="#FEDDC7" width="15" height="12.833"/>
<rect x="878.151" y="404.44" fill="#FEDDC7" width="12.792" height="12.625"/>
<rect x="901.401" y="404.44" fill="#FEDDC7" width="12.75" height="12.625"/>
<rect x="923.276" y="404.44" fill="#FEDDC7" width="11.625" height="12.625"/>
<rect x="1117.443" y="255.357" fill="#FEDDC7" width="7.667" height="7.167"/>
<rect x="1139.776" y="255.357" fill="#FEDDC7" width="8" height="7.167"/>
<rect x="1161.401" y="255.357" fill="#FEDDC7" width="8.542" height="7.167"/>
<rect x="1187.776" y="251.524" fill="#FEDDC7" width="15.333" height="13"/>
<rect x="1116.276" y="304.69" fill="#FEDDC7" width="8.833" height="9.125"/>
<rect x="1138.943" y="304.69" fill="#FEDDC7" width="8.833" height="9.125"/>
<rect x="1161.401" y="304.69" fill="#FEDDC7" width="9.875" height="9.125"/>
<rect x="1188.276" y="303.69" fill="#FEDDC7" width="13.833" height="12.667"/>
<rect x="1055.151" y="410.753" fill="#FEDDC7" width="15.125" height="13.438"/>
<rect x="1090.276" y="410.753" fill="#FEDDC7" width="14" height="13.438"/>
<rect x="1125.11" y="410.753" fill="#FEDDC7" width="14.292" height="13.438"/>
<rect x="1155.026" y="410.753" fill="#FEDDC7" width="14.375" height="13.438"/>
<rect x="1180.651" y="410.753" fill="#FEDDC7" width="13.625" height="13.438"/>
<rect x="1056.776" y="528.565" fill="#FEDDC7" width="13.5" height="12.625"/>
<rect x="1091.026" y="528.565" fill="#FEDDC7" width="14.875" height="12.625"/>
<rect x="1125.11" y="528.565" fill="#FEDDC7" width="14.917" height="12.625"/>
<rect x="1180.026" y="528.565" fill="#FEDDC7" width="14.25" height="12.625"/>
<polygon id="shop:3:991.7766:347.253" opacity="0" fill="#FCFCE4" points="1473.276,163.835 1473.276,605.169 1012.401,605.835
	1012.401,493.835 1004.151,493.835 1004.151,476.835 761.276,479.835 761.276,502.669 510.276,502.669 510.276,248.835
	527.276,248.835 527.276,88.669 997.776,88.669 997.776,164.865 1132.255,164.865 1323.61,164.865 1323.61,179.169
	1364.276,179.169 1364.276,160.71 "/>
</svg>
