<?xml version="1.0" encoding="utf-8"?>
<!-- Generator: Adobe Illustrator 17.0.0, SVG Export Plug-In . SVG Version: 6.00 Build 0)  -->
<!DOCTYPE svg PUBLIC "-//W3C//DTD SVG 1.1//EN" "http://www.w3.org/Graphics/SVG/1.1/DTD/svg11.dtd">
<svg version="1.1" id="图层_1" xmlns="http://www.w3.org/2000/svg" xmlns:xlink="http://www.w3.org/1999/xlink" x="0px" y="0px"
	 width="1623.162px" height="864.086px" viewBox="0 0 1623.162 864.086" enable-background="new 0 0 1623.162 864.086"
	 xml:space="preserve">
<image overflow="visible" width="2000" height="2500" xlink:href="U6食堂SVG地图.png"  transform="matrix(1.939726e-011 -0.432 0.432 1.939726e-011 290 864.0859)">
</image>
<ellipse id="Cell5:09c51A06" opacity="0.8" fill="#4CB9FF" stroke="#FFFFFF" stroke-miterlimit="10" cx="640.585" cy="149.415" rx="72.457" ry="117.012"/>
<ellipse id="Cell2:09c51A03" opacity="0.8" fill="#4CB9FF" stroke="#FFFFFF" stroke-miterlimit="10" cx="456.967" cy="153.015" rx="145.364" ry="61.656"/>
<circle id="Cell3:09c51A04" opacity="0.8" fill="#4CB9FF" stroke="#FFFFFF" stroke-miterlimit="10" cx="563.625" cy="619.262" r="211.521"/>
<ellipse id="Cell6:09c51A07" opacity="0.8" fill="#4CB9FF" stroke="#FFFFFF" stroke-miterlimit="10" cx="1149.585" cy="149.415" rx="200.72" ry="77.858"/>
<ellipse id="Cell4:09c51A05" opacity="0.8" fill="#4CB9FF" stroke="#FFFFFF" stroke-miterlimit="10" cx="1137.884" cy="421.692" rx="212.421" ry="106.661"/>
<text transform="matrix(1 0 0 1 403.4115 166.8171)" font-family="'MicrosoftYaHei'" font-size="43.2043">Cell2</text>
<text transform="matrix(1 0 0 1 606.2313 166.8171)" font-family="'MicrosoftYaHei'" font-size="43.2043">Cell5</text>
<text transform="matrix(1 0 0 1 507.8218 623.462)" font-family="'MicrosoftYaHei'" font-size="43.2043">Cell3</text>
<text transform="matrix(1 0 0 1 1100.6804 163.8165)" font-family="'MicrosoftYaHei'" font-size="43.2043">Cell6</text>
<text transform="matrix(1 0 0 1 1084.4791 437.4433)" font-family="'MicrosoftYaHei'" font-size="43.2043">Cell4</text>
</svg>
